{
	"patcher" : 	{
		"fileversion" : 1,
		"appversion" : 		{
			"major" : 8,
			"minor" : 1,
			"revision" : 11,
			"architecture" : "x64",
			"modernui" : 1
		}
,
		"classnamespace" : "box",
		"rect" : [ 42.0, 85.0, 1537.0, 923.0 ],
		"bglocked" : 0,
		"openinpresentation" : 0,
		"default_fontsize" : 12.0,
		"default_fontface" : 0,
		"default_fontname" : "Arial",
		"gridonopen" : 1,
		"gridsize" : [ 15.0, 15.0 ],
		"gridsnaponopen" : 1,
		"objectsnaponopen" : 1,
		"statusbarvisible" : 2,
		"toolbarvisible" : 1,
		"lefttoolbarpinned" : 0,
		"toptoolbarpinned" : 0,
		"righttoolbarpinned" : 0,
		"bottomtoolbarpinned" : 0,
		"toolbars_unpinned_last_save" : 0,
		"tallnewobj" : 0,
		"boxanimatetime" : 200,
		"enablehscroll" : 1,
		"enablevscroll" : 1,
		"devicewidth" : 0.0,
		"description" : "",
		"digest" : "",
		"tags" : "",
		"style" : "",
		"subpatcher_template" : "",
		"assistshowspatchername" : 0,
		"boxes" : [ 			{
				"box" : 				{
					"id" : "obj-53",
					"linecount" : 3,
					"maxclass" : "comment",
					"numinlets" : 1,
					"numoutlets" : 0,
					"patching_rect" : [ 556.697399973869324, 526.548714935779572, 150.0, 48.0 ],
					"text" : "this part isnt working because the 0 is sent several times"
				}

			}
, 			{
				"box" : 				{
					"id" : "obj-51",
					"maxclass" : "button",
					"numinlets" : 1,
					"numoutlets" : 1,
					"outlettype" : [ "bang" ],
					"parameter_enable" : 0,
					"patching_rect" : [ 972.56644994020462, 281.988145232200623, 24.0, 24.0 ]
				}

			}
, 			{
				"box" : 				{
					"id" : "obj-47",
					"maxclass" : "newobj",
					"numinlets" : 2,
					"numoutlets" : 1,
					"outlettype" : [ "" ],
					"patching_rect" : [ 1003.53990375995636, 180.530987977981567, 34.0, 22.0 ],
					"text" : "pack"
				}

			}
, 			{
				"box" : 				{
					"id" : "obj-43",
					"maxclass" : "newobj",
					"numinlets" : 2,
					"numoutlets" : 2,
					"outlettype" : [ "bang", "" ],
					"patching_rect" : [ 1001.769992113113403, 115.150440573692322, 50.0, 22.0 ],
					"text" : "select 0"
				}

			}
, 			{
				"box" : 				{
					"id" : "obj-36",
					"maxclass" : "newobj",
					"numinlets" : 2,
					"numoutlets" : 1,
					"outlettype" : [ "" ],
					"patching_rect" : [ 1001.769992113113403, 391.289073824882507, 34.0, 22.0 ],
					"text" : "pack"
				}

			}
, 			{
				"box" : 				{
					"id" : "obj-35",
					"linecount" : 2,
					"maxclass" : "comment",
					"numinlets" : 1,
					"numoutlets" : 0,
					"patching_rect" : [ 209.089019358158112, 495.104777455329895, 97.619048118591309, 34.0 ],
					"text" : "time to use for triggering events"
				}

			}
, 			{
				"box" : 				{
					"id" : "obj-32",
					"linecount" : 2,
					"maxclass" : "comment",
					"numinlets" : 1,
					"numoutlets" : 0,
					"patching_rect" : [ 62.240740716457367, 206.624170124530792, 68.367347717285156, 34.0 ],
					"text" : "time to use for cueing"
				}

			}
, 			{
				"box" : 				{
					"fontname" : "Arial",
					"fontsize" : 13.0,
					"hidden" : 1,
					"id" : "obj-24",
					"maxclass" : "newobj",
					"numinlets" : 1,
					"numoutlets" : 1,
					"outlettype" : [ "" ],
					"patching_rect" : [ 192.330909878015518, 391.289073824882507, 110.0, 23.0 ],
					"text" : "loadmess set 0.1"
				}

			}
, 			{
				"box" : 				{
					"fontname" : "Arial",
					"fontsize" : 13.0,
					"format" : 6,
					"id" : "obj-28",
					"maxclass" : "flonum",
					"numinlets" : 1,
					"numoutlets" : 2,
					"outlettype" : [ "", "bang" ],
					"parameter_enable" : 0,
					"patching_rect" : [ 192.330909878015518, 416.289073824882507, 54.0, 23.0 ]
				}

			}
, 			{
				"box" : 				{
					"id" : "obj-16",
					"maxclass" : "newobj",
					"numinlets" : 2,
					"numoutlets" : 1,
					"outlettype" : [ "" ],
					"patching_rect" : [ 192.330909878015518, 461.016964793205261, 39.0, 22.0 ],
					"text" : "round"
				}

			}
, 			{
				"box" : 				{
					"id" : "obj-15",
					"maxclass" : "comment",
					"numinlets" : 1,
					"numoutlets" : 0,
					"patching_rect" : [ 1196.101863622665405, 198.040097832679749, 150.0, 20.0 ],
					"text" : "just to demonstrate"
				}

			}
, 			{
				"box" : 				{
					"id" : "obj-12",
					"maxclass" : "message",
					"numinlets" : 2,
					"numoutlets" : 1,
					"outlettype" : [ "" ],
					"patching_rect" : [ 1159.548656046390533, 198.040097832679749, 29.5, 22.0 ],
					"presentation" : 1,
					"presentation_rect" : [ 716.040423214435577, 84.60051554441452, 29.5, 22.0 ],
					"text" : "0"
				}

			}
, 			{
				"box" : 				{
					"id" : "obj-10",
					"maxclass" : "message",
					"numinlets" : 2,
					"numoutlets" : 1,
					"outlettype" : [ "" ],
					"patching_rect" : [ 1109.845764636993408, 156.349478363990784, 29.5, 22.0 ],
					"presentation" : 1,
					"presentation_rect" : [ 716.040423214435577, 57.647407591342926, 29.5, 22.0 ],
					"text" : "1"
				}

			}
, 			{
				"box" : 				{
					"activebgcolor" : [ 0.164705882352941, 0.156862745098039, 0.196078431372549, 1.0 ],
					"activebgoncolor" : [ 0.380392156862745, 0.317647058823529, 0.976470588235294, 1.0 ],
					"bgcolor" : [ 0.0, 0.0, 0.0, 0.0 ],
					"blinktime" : 120,
					"bordercolor" : [ 0.305882352941176, 0.254901960784314, 0.27843137254902, 1.0 ],
					"focusbordercolor" : [ 0.164705882352941, 0.156862745098039, 0.196078431372549, 1.0 ],
					"id" : "obj-8",
					"maxclass" : "live.button",
					"numinlets" : 1,
					"numoutlets" : 1,
					"outlettype" : [ "" ],
					"parameter_enable" : 1,
					"patching_rect" : [ 230.46295827627182, 169.016725540161133, 15.0, 15.0 ],
					"presentation" : 1,
					"presentation_rect" : [ 172.381073921918869, 90.60051554441452, 10.0, 10.0 ],
					"saved_attribute_attributes" : 					{
						"valueof" : 						{
							"parameter_enum" : [ "off", "on" ],
							"parameter_longname" : "live.button",
							"parameter_mmax" : 1,
							"parameter_shortname" : "live.button",
							"parameter_type" : 2
						}

					}
,
					"varname" : "live.button"
				}

			}
, 			{
				"box" : 				{
					"id" : "obj-3",
					"maxclass" : "comment",
					"numinlets" : 1,
					"numoutlets" : 0,
					"patching_rect" : [ 128.558039426803589, 616.45082288980484, 88.053092360496521, 20.0 ],
					"presentation" : 1,
					"presentation_rect" : [ 108.606880247592926, 57.647407591342926, 77.0, 20.0 ],
					"text" : "current BPM",
					"textcolor" : [ 1.0, 1.0, 1.0, 1.0 ]
				}

			}
, 			{
				"box" : 				{
					"id" : "obj-182",
					"maxclass" : "message",
					"numinlets" : 2,
					"numoutlets" : 1,
					"outlettype" : [ "" ],
					"patching_rect" : [ 137.952072501182556, 352.409616708755493, 29.5, 22.0 ],
					"text" : "0."
				}

			}
, 			{
				"box" : 				{
					"id" : "obj-178",
					"maxclass" : "newobj",
					"numinlets" : 1,
					"numoutlets" : 2,
					"outlettype" : [ "", "" ],
					"patching_rect" : [ 192.330909878015518, 352.409616708755493, 164.0, 22.0 ],
					"text" : "if $f1 < 0 then 0 else out2 $f1"
				}

			}
, 			{
				"box" : 				{
					"id" : "obj-175",
					"maxclass" : "newobj",
					"numinlets" : 2,
					"numoutlets" : 1,
					"outlettype" : [ "float" ],
					"patching_rect" : [ 192.493836432695389, 313.620027959346771, 45.0, 22.0 ],
					"text" : "/ 1000."
				}

			}
, 			{
				"box" : 				{
					"id" : "obj-174",
					"maxclass" : "newobj",
					"numinlets" : 2,
					"numoutlets" : 1,
					"outlettype" : [ "float" ],
					"patching_rect" : [ 192.330909878015518, 238.749149680137634, 29.5, 22.0 ],
					"text" : "* 4."
				}

			}
, 			{
				"box" : 				{
					"id" : "obj-173",
					"maxclass" : "newobj",
					"numinlets" : 2,
					"numoutlets" : 1,
					"outlettype" : [ "float" ],
					"patching_rect" : [ 137.952072501182556, 238.749149680137634, 47.0, 22.0 ],
					"text" : "* 1000."
				}

			}
, 			{
				"box" : 				{
					"id" : "obj-172",
					"maxclass" : "newobj",
					"numinlets" : 2,
					"numoutlets" : 1,
					"outlettype" : [ "int" ],
					"patching_rect" : [ 192.493836432695389, 281.988145232200623, 29.5, 22.0 ],
					"text" : "-"
				}

			}
, 			{
				"box" : 				{
					"format" : 6,
					"id" : "obj-171",
					"maxclass" : "flonum",
					"numinlets" : 1,
					"numoutlets" : 2,
					"outlettype" : [ "", "bang" ],
					"parameter_enable" : 0,
					"patching_rect" : [ 137.952072501182556, 495.104777455329895, 62.0, 22.0 ],
					"presentation" : 1,
					"presentation_rect" : [ 45.081701159477234, 84.60051554441452, 50.121212661266327, 22.0 ]
				}

			}
, 			{
				"box" : 				{
					"id" : "obj-159",
					"maxclass" : "newobj",
					"numinlets" : 5,
					"numoutlets" : 5,
					"outlettype" : [ "bang", "bang", "bang", "bang", "" ],
					"patching_rect" : [ 1109.845764636993408, 116.150440573692322, 100.0, 22.0 ],
					"text" : "select 0 10 20 30"
				}

			}
, 			{
				"box" : 				{
					"id" : "obj-158",
					"maxclass" : "comment",
					"numinlets" : 1,
					"numoutlets" : 0,
					"patching_rect" : [ 943.774310648441315, 116.150440573692322, 43.655185282230377, 20.0 ],
					"text" : "times"
				}

			}
, 			{
				"box" : 				{
					"id" : "obj-153",
					"maxclass" : "comment",
					"numinlets" : 1,
					"numoutlets" : 0,
					"patching_rect" : [ 913.179496467113495, 197.040097832679749, 74.249999463558197, 20.0 ],
					"text" : "first change"
				}

			}
, 			{
				"box" : 				{
					"id" : "obj-144",
					"maxclass" : "comment",
					"numinlets" : 1,
					"numoutlets" : 0,
					"patching_rect" : [ 924.929495096206665, 155.349478363990784, 62.500000834465027, 20.0 ],
					"text" : "beginning"
				}

			}
, 			{
				"box" : 				{
					"fontsize" : 16.0,
					"id" : "obj-142",
					"maxclass" : "comment",
					"numinlets" : 1,
					"numoutlets" : 0,
					"patching_rect" : [ 943.774310648441315, 67.434642732143402, 132.0, 25.0 ],
					"text" : "section 1 cueing"
				}

			}
, 			{
				"box" : 				{
					"id" : "obj-138",
					"linecount" : 2,
					"maxclass" : "comment",
					"numinlets" : 1,
					"numoutlets" : 0,
					"patching_rect" : [ 949.5829017162323, 697.101854920387268, 125.0, 34.0 ],
					"text" : "signals the downbeat ending a cue"
				}

			}
, 			{
				"box" : 				{
					"id" : "obj-135",
					"maxclass" : "button",
					"numinlets" : 1,
					"numoutlets" : 1,
					"outlettype" : [ "bang" ],
					"parameter_enable" : 0,
					"patching_rect" : [ 924.929495096206665, 697.101854920387268, 24.0, 24.0 ]
				}

			}
, 			{
				"box" : 				{
					"id" : "obj-132",
					"maxclass" : "button",
					"numinlets" : 1,
					"numoutlets" : 1,
					"outlettype" : [ "bang" ],
					"parameter_enable" : 0,
					"patching_rect" : [ 441.671148538589478, 193.506521224975586, 24.0, 24.0 ]
				}

			}
, 			{
				"box" : 				{
					"id" : "obj-129",
					"linecount" : 2,
					"maxclass" : "comment",
					"numinlets" : 1,
					"numoutlets" : 0,
					"patching_rect" : [ 441.671148538589478, 98.669508337974548, 153.0, 34.0 ],
					"text" : "times for different sections to start ---> to trigger a cue"
				}

			}
, 			{
				"box" : 				{
					"id" : "obj-127",
					"maxclass" : "button",
					"numinlets" : 1,
					"numoutlets" : 1,
					"outlettype" : [ "bang" ],
					"parameter_enable" : 0,
					"patching_rect" : [ 390.146342635154724, 193.506521224975586, 24.0, 24.0 ]
				}

			}
, 			{
				"box" : 				{
					"id" : "obj-125",
					"maxclass" : "newobj",
					"numinlets" : 2,
					"numoutlets" : 1,
					"outlettype" : [ "" ],
					"patching_rect" : [ 441.671148538589478, 289.908346712589264, 72.921568751335144, 22.0 ],
					"text" : "pack sym 0"
				}

			}
, 			{
				"box" : 				{
					"id" : "obj-123",
					"maxclass" : "message",
					"numinlets" : 2,
					"numoutlets" : 1,
					"outlettype" : [ "" ],
					"patching_rect" : [ 596.592717289924622, 238.749149680137634, 18.0, 22.0 ],
					"text" : "4"
				}

			}
, 			{
				"box" : 				{
					"id" : "obj-122",
					"maxclass" : "message",
					"numinlets" : 2,
					"numoutlets" : 1,
					"outlettype" : [ "" ],
					"patching_rect" : [ 563.092717289924622, 238.749149680137634, 18.0, 22.0 ],
					"text" : "3"
				}

			}
, 			{
				"box" : 				{
					"id" : "obj-117",
					"maxclass" : "message",
					"numinlets" : 2,
					"numoutlets" : 1,
					"outlettype" : [ "" ],
					"patching_rect" : [ 529.592717289924622, 238.749149680137634, 18.0, 22.0 ],
					"text" : "2"
				}

			}
, 			{
				"box" : 				{
					"id" : "obj-116",
					"maxclass" : "message",
					"numinlets" : 2,
					"numoutlets" : 1,
					"outlettype" : [ "" ],
					"patching_rect" : [ 495.592717289924622, 238.749149680137634, 19.0, 22.0 ],
					"text" : "1"
				}

			}
, 			{
				"box" : 				{
					"id" : "obj-114",
					"maxclass" : "message",
					"numinlets" : 2,
					"numoutlets" : 1,
					"outlettype" : [ "" ],
					"patching_rect" : [ 441.671148538589478, 238.749149680137634, 49.0, 22.0 ],
					"text" : "Section"
				}

			}
, 			{
				"box" : 				{
					"fontsize" : 12.0,
					"id" : "obj-110",
					"maxclass" : "message",
					"numinlets" : 2,
					"numoutlets" : 1,
					"outlettype" : [ "" ],
					"patching_rect" : [ 470.223457276821136, 332.290700197219849, 65.0, 22.0 ],
					"presentation" : 1,
					"presentation_rect" : [ 634.302311629056931, 193.620914578437805, 59.04575103521347, 22.0 ],
					"text" : "Section 1"
				}

			}
, 			{
				"box" : 				{
					"id" : "obj-92",
					"maxclass" : "newobj",
					"numinlets" : 5,
					"numoutlets" : 5,
					"outlettype" : [ "bang", "bang", "bang", "bang", "" ],
					"patching_rect" : [ 441.671148538589478, 146.832927882671356, 153.0, 22.0 ],
					"text" : "select 0. 213.3 346.3 426.6"
				}

			}
, 			{
				"box" : 				{
					"id" : "obj-88",
					"maxclass" : "comment",
					"numinlets" : 1,
					"numoutlets" : 0,
					"patching_rect" : [ 176.727664530277252, 37.698256194591522, 126.470587491989136, 20.0 ],
					"text" : "(will likely be external)"
				}

			}
, 			{
				"box" : 				{
					"id" : "obj-83",
					"maxclass" : "comment",
					"numinlets" : 1,
					"numoutlets" : 0,
					"patching_rect" : [ 308.70806747674942, 495.104777455329895, 77.662926554679871, 20.0 ],
					"presentation" : 1,
					"presentation_rect" : [ 45.081701159477234, 57.647407591342926, 50.121212661266327, 20.0 ],
					"text" : "time (s)",
					"textcolor" : [ 1.0, 1.0, 1.0, 1.0 ]
				}

			}
, 			{
				"box" : 				{
					"fontname" : "Arial",
					"fontsize" : 8.0,
					"id" : "obj-30",
					"maxclass" : "message",
					"numinlets" : 2,
					"numoutlets" : 1,
					"outlettype" : [ "" ],
					"patching_rect" : [ 96.0, 93.257080435752869, 30.0, 18.0 ],
					"text" : "reset"
				}

			}
, 			{
				"box" : 				{
					"bgcolor" : [ 0.164705882352941, 0.156862745098039, 0.196078431372549, 1.0 ],
					"checkedcolor" : [ 0.380392156862745, 0.317647058823529, 0.976470588235294, 1.0 ],
					"id" : "obj-26",
					"maxclass" : "toggle",
					"numinlets" : 1,
					"numoutlets" : 1,
					"outlettype" : [ "int" ],
					"parameter_enable" : 0,
					"patching_rect" : [ 137.952072501182556, 37.698256194591522, 20.0, 20.0 ],
					"presentation" : 1,
					"presentation_rect" : [ 45.081701159477234, 120.147410333156586, 105.272724032402067, 105.272724032402039 ],
					"style" : "velvet"
				}

			}
, 			{
				"box" : 				{
					"bgcolor" : [ 1.0, 1.0, 1.0, 0.48 ],
					"id" : "obj-79",
					"maxclass" : "comment",
					"numinlets" : 1,
					"numoutlets" : 0,
					"patching_rect" : [ 119.128545016050339, 9.01960813999176, 57.647054970264435, 20.0 ],
					"presentation" : 1,
					"presentation_rect" : [ 45.081701159477234, 28.000868201255798, 159.238854348659515, 20.0 ],
					"text" : "transport",
					"textcolor" : [ 0.0, 0.0, 0.0, 1.0 ]
				}

			}
, 			{
				"box" : 				{
					"id" : "obj-77",
					"maxclass" : "comment",
					"numinlets" : 1,
					"numoutlets" : 0,
					"patching_rect" : [ 71.135078489780426, 37.698256194591522, 59.71677428483963, 20.0 ],
					"text" : "start/stop"
				}

			}
, 			{
				"box" : 				{
					"fontsize" : 12.0,
					"format" : 6,
					"id" : "obj-73",
					"maxclass" : "flonum",
					"numinlets" : 1,
					"numoutlets" : 2,
					"outlettype" : [ "", "bang" ],
					"parameter_enable" : 0,
					"patching_rect" : [ 137.952072501182556, 206.624170124530792, 60.929204821586609, 22.0 ]
				}

			}
, 			{
				"box" : 				{
					"id" : "obj-71",
					"maxclass" : "newobj",
					"numinlets" : 2,
					"numoutlets" : 1,
					"outlettype" : [ "float" ],
					"patching_rect" : [ 137.952072501182556, 173.933550655841827, 45.0, 22.0 ],
					"text" : "/ 1000."
				}

			}
, 			{
				"box" : 				{
					"id" : "obj-70",
					"maxclass" : "message",
					"numinlets" : 2,
					"numoutlets" : 1,
					"outlettype" : [ "" ],
					"patching_rect" : [ 62.240740716457367, 91.257080435752869, 29.5, 22.0 ],
					"text" : "100"
				}

			}
, 			{
				"box" : 				{
					"format" : 6,
					"id" : "obj-40",
					"maxclass" : "flonum",
					"numinlets" : 1,
					"numoutlets" : 2,
					"outlettype" : [ "", "bang" ],
					"parameter_enable" : 0,
					"patching_rect" : [ 33.0, 616.45082288980484, 89.0, 22.0 ],
					"presentation" : 1,
					"presentation_rect" : [ 108.606880247592926, 84.60051554441452, 58.286324739456177, 22.0 ]
				}

			}
, 			{
				"box" : 				{
					"id" : "obj-37",
					"maxclass" : "newobj",
					"numinlets" : 1,
					"numoutlets" : 1,
					"outlettype" : [ "" ],
					"patching_rect" : [ 33.0, 653.866778373718262, 100.0, 22.0 ],
					"text" : "expr (60000./$f1)"
				}

			}
, 			{
				"box" : 				{
					"fontname" : "Arial",
					"fontsize" : 13.0,
					"id" : "obj-27",
					"maxclass" : "newobj",
					"numinlets" : 2,
					"numoutlets" : 1,
					"outlettype" : [ "float" ],
					"patching_rect" : [ 137.952072501182556, 137.698256194591522, 50.0, 23.0 ],
					"text" : "clocker"
				}

			}
, 			{
				"box" : 				{
					"fontname" : "Arial",
					"fontsize" : 13.0,
					"id" : "obj-33",
					"maxclass" : "newobj",
					"numinlets" : 2,
					"numoutlets" : 1,
					"outlettype" : [ "bang" ],
					"patching_rect" : [ 229.96295827627182, 137.698256194591522, 42.0, 23.0 ],
					"text" : "metro"
				}

			}
, 			{
				"box" : 				{
					"id" : "obj-191",
					"maxclass" : "message",
					"numinlets" : 2,
					"numoutlets" : 1,
					"outlettype" : [ "" ],
					"patching_rect" : [ 583.539507031440735, 834.339942693710327, 50.0, 22.0 ],
					"text" : "0"
				}

			}
, 			{
				"box" : 				{
					"id" : "obj-189",
					"maxclass" : "message",
					"numinlets" : 2,
					"numoutlets" : 1,
					"outlettype" : [ "" ],
					"patching_rect" : [ 441.671148538589478, 834.339942693710327, 50.0, 22.0 ],
					"text" : "42"
				}

			}
, 			{
				"box" : 				{
					"fontsize" : 30.0,
					"id" : "obj-168",
					"maxclass" : "message",
					"numinlets" : 2,
					"numoutlets" : 1,
					"outlettype" : [ "" ],
					"patching_rect" : [ 622.033871948719025, 1014.611310362815857, 241.0, 43.0 ],
					"presentation" : 1,
					"presentation_rect" : [ 474.204267829656601, 120.147410333156586, 176.0, 43.0 ],
					"text" : "Background"
				}

			}
, 			{
				"box" : 				{
					"id" : "obj-180",
					"maxclass" : "message",
					"numinlets" : 2,
					"numoutlets" : 1,
					"outlettype" : [ "" ],
					"patching_rect" : [ 583.539507031440735, 968.191872477531433, 127.0, 22.0 ],
					"text" : "@bgcolor 0.56 1 1 0.8"
				}

			}
, 			{
				"box" : 				{
					"id" : "obj-179",
					"maxclass" : "message",
					"numinlets" : 2,
					"numoutlets" : 1,
					"outlettype" : [ "" ],
					"patching_rect" : [ 441.671148538589478, 968.191872477531433, 133.0, 22.0 ],
					"text" : "@bgcolor 1 0.75 1 0.06"
				}

			}
, 			{
				"box" : 				{
					"attr" : "bgcolor",
					"attrfilter" : [ "bgcolor" ],
					"fontface" : 0,
					"fontname" : "Arial",
					"fontsize" : 16.0,
					"id" : "obj-176",
					"lock" : 1,
					"maxclass" : "attrui",
					"numinlets" : 1,
					"numoutlets" : 1,
					"outlettype" : [ "" ],
					"patching_rect" : [ 441.671148538589478, 1030.682738780975342, 154.0, 27.0 ],
					"text_width" : 110.0
				}

			}
, 			{
				"box" : 				{
					"bangmode" : 1,
					"bgcolor" : [ 0.0, 0.56, 1.0, 1.0 ],
					"bordercolor" : [ 0.258824, 0.258824, 0.258824, 1.0 ],
					"fontface" : 0,
					"fontname" : "Arial",
					"fontsize" : 36.0,
					"id" : "obj-177",
					"maxclass" : "textedit",
					"numinlets" : 1,
					"numoutlets" : 4,
					"outlettype" : [ "", "int", "", "" ],
					"outputmode" : 1,
					"parameter_enable" : 0,
					"patching_rect" : [ 441.671148538589478, 1080.24216639995575, 185.0, 107.0 ],
					"presentation" : 1,
					"presentation_rect" : [ 421.936411142349243, 57.647407591342926, 280.535713374614716, 168.000005483627319 ],
					"tabmode" : 0,
					"textcolor" : [ 1.0, 1.0, 1.0, 1.0 ]
				}

			}
, 			{
				"box" : 				{
					"id" : "obj-169",
					"maxclass" : "newobj",
					"numinlets" : 2,
					"numoutlets" : 1,
					"outlettype" : [ "" ],
					"patching_rect" : [ 583.539507031440735, 884.191872477531433, 120.0, 22.0 ],
					"text" : "if $i1 < $i2 then bang"
				}

			}
, 			{
				"box" : 				{
					"id" : "obj-156",
					"maxclass" : "newobj",
					"numinlets" : 2,
					"numoutlets" : 1,
					"outlettype" : [ "" ],
					"patching_rect" : [ 441.671148538589478, 884.191872477531433, 127.0, 22.0 ],
					"text" : "if $i1 >= $i2 then bang"
				}

			}
, 			{
				"box" : 				{
					"id" : "obj-148",
					"maxclass" : "newobj",
					"numinlets" : 6,
					"numoutlets" : 1,
					"outlettype" : [ "" ],
					"patching_rect" : [ 583.539507031440735, 794.359149038791656, 90.0, 22.0 ],
					"text" : "scale 0 1 0 100"
				}

			}
, 			{
				"box" : 				{
					"id" : "obj-147",
					"maxclass" : "message",
					"numinlets" : 2,
					"numoutlets" : 1,
					"outlettype" : [ "" ],
					"patching_rect" : [ 534.59226405620575, 794.359149038791656, 29.5, 22.0 ],
					"text" : "100"
				}

			}
, 			{
				"box" : 				{
					"id" : "obj-133",
					"maxclass" : "newobj",
					"numinlets" : 2,
					"numoutlets" : 1,
					"outlettype" : [ "int" ],
					"patching_rect" : [ 441.671148538589478, 794.359149038791656, 73.0, 22.0 ],
					"text" : "random 100"
				}

			}
, 			{
				"box" : 				{
					"id" : "obj-124",
					"maxclass" : "comment",
					"numinlets" : 1,
					"numoutlets" : 0,
					"patching_rect" : [ 615.014286041259766, 745.669300258159637, 179.473681926727295, 20.0 ],
					"text" : "probability of being background"
				}

			}
, 			{
				"box" : 				{
					"format" : 6,
					"id" : "obj-119",
					"maxclass" : "flonum",
					"numinlets" : 1,
					"numoutlets" : 2,
					"outlettype" : [ "", "bang" ],
					"parameter_enable" : 0,
					"patching_rect" : [ 583.539507031440735, 717.990729093551636, 96.315785884857178, 22.0 ]
				}

			}
, 			{
				"box" : 				{
					"id" : "obj-113",
					"maxclass" : "comment",
					"numinlets" : 1,
					"numoutlets" : 0,
					"patching_rect" : [ 441.671148538589478, 676.620366930961609, 196.315785884857178, 20.0 ],
					"text" : "role assignment"
				}

			}
, 			{
				"box" : 				{
					"id" : "obj-111",
					"maxclass" : "comment",
					"numinlets" : 1,
					"numoutlets" : 0,
					"patching_rect" : [ 217.81015819311142, 960.583334505558014, 99.185783445835114, 20.0 ],
					"text" : "count down part"
				}

			}
, 			{
				"box" : 				{
					"id" : "obj-107",
					"maxclass" : "newobj",
					"numinlets" : 2,
					"numoutlets" : 2,
					"outlettype" : [ "bang", "" ],
					"patching_rect" : [ 441.671148538589478, 717.990729093551636, 50.0, 22.0 ],
					"text" : "select 0"
				}

			}
, 			{
				"box" : 				{
					"id" : "obj-96",
					"maxclass" : "message",
					"numinlets" : 2,
					"numoutlets" : 1,
					"outlettype" : [ "" ],
					"patching_rect" : [ 72.117938816547394, 978.293848097324371, 127.894730806350708, 22.0 ],
					"presentation" : 1,
					"presentation_rect" : [ 240.326804339885712, 28.000868201255798, 101.0, 22.0 ],
					"text" : "new directions in:"
				}

			}
, 			{
				"box" : 				{
					"id" : "obj-86",
					"maxclass" : "message",
					"numinlets" : 2,
					"numoutlets" : 1,
					"outlettype" : [ "" ],
					"patching_rect" : [ 184.101360559463501, 844.164227306842804, 88.0, 22.0 ],
					"text" : "moveto 50 120"
				}

			}
, 			{
				"box" : 				{
					"id" : "obj-68",
					"maxclass" : "newobj",
					"numinlets" : 1,
					"numoutlets" : 1,
					"outlettype" : [ "bang" ],
					"patching_rect" : [ 33.0, 9.01960813999176, 58.740740716457367, 22.0 ],
					"text" : "loadbang"
				}

			}
, 			{
				"box" : 				{
					"id" : "obj-65",
					"maxclass" : "newobj",
					"numinlets" : 1,
					"numoutlets" : 1,
					"outlettype" : [ "" ],
					"patching_rect" : [ 106.101360559463501, 796.682739973068237, 104.0, 22.0 ],
					"text" : "if $i1<5 then bang"
				}

			}
, 			{
				"box" : 				{
					"id" : "obj-61",
					"maxclass" : "toggle",
					"numinlets" : 1,
					"numoutlets" : 1,
					"outlettype" : [ "int" ],
					"parameter_enable" : 0,
					"patching_rect" : [ 240.588808476924896, 711.719454109668732, 24.0, 24.0 ]
				}

			}
, 			{
				"box" : 				{
					"id" : "obj-41",
					"maxclass" : "newobj",
					"numinlets" : 2,
					"numoutlets" : 1,
					"outlettype" : [ "" ],
					"patching_rect" : [ 106.101360559463501, 884.820169448852539, 69.0, 22.0 ],
					"text" : "pack sym 0"
				}

			}
, 			{
				"box" : 				{
					"id" : "obj-38",
					"maxclass" : "newobj",
					"numinlets" : 5,
					"numoutlets" : 4,
					"outlettype" : [ "int", "", "", "int" ],
					"patching_rect" : [ 156.101360559463501, 754.31237781047821, 79.0, 22.0 ],
					"text" : "counter 1 0 5"
				}

			}
, 			{
				"box" : 				{
					"id" : "obj-29",
					"maxclass" : "newobj",
					"numinlets" : 2,
					"numoutlets" : 1,
					"outlettype" : [ "float" ],
					"patching_rect" : [ 156.101360559463501, 720.830889821052551, 47.0, 22.0 ],
					"text" : "clocker"
				}

			}
, 			{
				"box" : 				{
					"id" : "obj-22",
					"maxclass" : "message",
					"numinlets" : 2,
					"numoutlets" : 1,
					"outlettype" : [ "" ],
					"patching_rect" : [ 33.0, 728.775332152843475, 62.0, 22.0 ],
					"text" : "font [] 100"
				}

			}
, 			{
				"box" : 				{
					"id" : "obj-20",
					"maxclass" : "message",
					"numinlets" : 2,
					"numoutlets" : 1,
					"outlettype" : [ "" ],
					"patching_rect" : [ 106.101360559463501, 844.164227306842804, 34.0, 22.0 ],
					"text" : "write"
				}

			}
, 			{
				"box" : 				{
					"fontname" : "Arial",
					"fontsize" : 13.0,
					"id" : "obj-137",
					"maxclass" : "message",
					"numinlets" : 2,
					"numoutlets" : 1,
					"outlettype" : [ "" ],
					"patching_rect" : [ 53.5, 796.682739973068237, 40.0, 23.0 ],
					"text" : "reset"
				}

			}
, 			{
				"box" : 				{
					"fontname" : "Arial",
					"fontsize" : 13.0,
					"id" : "obj-90",
					"maxclass" : "message",
					"numinlets" : 2,
					"numoutlets" : 1,
					"outlettype" : [ "" ],
					"patching_rect" : [ 142.101360559463501, 844.164227306842804, 42.0, 23.0 ],
					"text" : "clear"
				}

			}
, 			{
				"box" : 				{
					"enablesprites" : 1,
					"id" : "obj-98",
					"maxclass" : "lcd",
					"numinlets" : 1,
					"numoutlets" : 4,
					"outlettype" : [ "list", "list", "int", "" ],
					"patching_rect" : [ 33.0, 1011.401514530181885, 167.012669622898102, 168.731968998908997 ],
					"presentation" : 1,
					"presentation_rect" : [ 240.326804339885712, 57.647407591342926, 167.14286732673645, 168.000005483627319 ]
				}

			}
, 			{
				"box" : 				{
					"id" : "obj-4",
					"maxclass" : "message",
					"numinlets" : 2,
					"numoutlets" : 1,
					"outlettype" : [ "" ],
					"patching_rect" : [ 441.671148538589478, 922.969531297683716, 71.0, 22.0 ],
					"text" : "Foreground"
				}

			}
, 			{
				"box" : 				{
					"id" : "obj-2",
					"maxclass" : "message",
					"numinlets" : 2,
					"numoutlets" : 1,
					"outlettype" : [ "" ],
					"patching_rect" : [ 637.539507031440735, 922.969531297683716, 73.0, 22.0 ],
					"text" : "Background"
				}

			}
, 			{
				"box" : 				{
					"id" : "obj-13",
					"maxclass" : "panel",
					"numinlets" : 1,
					"numoutlets" : 0,
					"patching_rect" : [ 23.153996706008911, 960.583334505558014, 186.94736385345459, 234.315781235694885 ],
					"presentation" : 1,
					"presentation_rect" : [ 28.352444708347321, 12.7813960313797, 785.781543910503387, 233.549021303653717 ]
				}

			}
 ],
		"lines" : [ 			{
				"patchline" : 				{
					"destination" : [ "obj-119", 0 ],
					"order" : 1,
					"source" : [ "obj-10", 0 ]
				}

			}
, 			{
				"patchline" : 				{
					"destination" : [ "obj-36", 0 ],
					"order" : 0,
					"source" : [ "obj-10", 0 ]
				}

			}
, 			{
				"patchline" : 				{
					"destination" : [ "obj-127", 0 ],
					"midpoints" : [ 451.171148538589478, 741.0, 387.0, 741.0, 387.0, 189.0, 399.646342635154724, 189.0 ],
					"order" : 4,
					"source" : [ "obj-107", 0 ]
				}

			}
, 			{
				"patchline" : 				{
					"destination" : [ "obj-132", 0 ],
					"midpoints" : [ 451.171148538589478, 741.0, 426.0, 741.0, 426.0, 189.0, 451.171148538589478, 189.0 ],
					"order" : 3,
					"source" : [ "obj-107", 0 ]
				}

			}
, 			{
				"patchline" : 				{
					"destination" : [ "obj-133", 0 ],
					"order" : 2,
					"source" : [ "obj-107", 0 ]
				}

			}
, 			{
				"patchline" : 				{
					"destination" : [ "obj-135", 0 ],
					"order" : 0,
					"source" : [ "obj-107", 0 ]
				}

			}
, 			{
				"patchline" : 				{
					"destination" : [ "obj-191", 0 ],
					"order" : 1,
					"source" : [ "obj-107", 0 ]
				}

			}
, 			{
				"patchline" : 				{
					"destination" : [ "obj-125", 0 ],
					"source" : [ "obj-114", 0 ]
				}

			}
, 			{
				"patchline" : 				{
					"destination" : [ "obj-125", 1 ],
					"source" : [ "obj-116", 0 ]
				}

			}
, 			{
				"patchline" : 				{
					"destination" : [ "obj-125", 1 ],
					"source" : [ "obj-117", 0 ]
				}

			}
, 			{
				"patchline" : 				{
					"destination" : [ "obj-148", 0 ],
					"source" : [ "obj-119", 0 ]
				}

			}
, 			{
				"patchline" : 				{
					"destination" : [ "obj-119", 0 ],
					"order" : 1,
					"source" : [ "obj-12", 0 ]
				}

			}
, 			{
				"patchline" : 				{
					"destination" : [ "obj-36", 0 ],
					"order" : 0,
					"source" : [ "obj-12", 0 ]
				}

			}
, 			{
				"patchline" : 				{
					"destination" : [ "obj-125", 1 ],
					"source" : [ "obj-122", 0 ]
				}

			}
, 			{
				"patchline" : 				{
					"destination" : [ "obj-125", 1 ],
					"source" : [ "obj-123", 0 ]
				}

			}
, 			{
				"patchline" : 				{
					"destination" : [ "obj-110", 1 ],
					"source" : [ "obj-125", 0 ]
				}

			}
, 			{
				"patchline" : 				{
					"destination" : [ "obj-61", 0 ],
					"source" : [ "obj-127", 0 ]
				}

			}
, 			{
				"patchline" : 				{
					"destination" : [ "obj-114", 0 ],
					"order" : 4,
					"source" : [ "obj-132", 0 ]
				}

			}
, 			{
				"patchline" : 				{
					"destination" : [ "obj-116", 0 ],
					"order" : 3,
					"source" : [ "obj-132", 0 ]
				}

			}
, 			{
				"patchline" : 				{
					"destination" : [ "obj-117", 0 ],
					"order" : 2,
					"source" : [ "obj-132", 0 ]
				}

			}
, 			{
				"patchline" : 				{
					"destination" : [ "obj-122", 0 ],
					"order" : 1,
					"source" : [ "obj-132", 0 ]
				}

			}
, 			{
				"patchline" : 				{
					"destination" : [ "obj-123", 0 ],
					"order" : 0,
					"source" : [ "obj-132", 0 ]
				}

			}
, 			{
				"patchline" : 				{
					"destination" : [ "obj-189", 1 ],
					"order" : 0,
					"source" : [ "obj-133", 0 ]
				}

			}
, 			{
				"patchline" : 				{
					"destination" : [ "obj-189", 0 ],
					"order" : 1,
					"source" : [ "obj-133", 0 ]
				}

			}
, 			{
				"patchline" : 				{
					"destination" : [ "obj-98", 0 ],
					"source" : [ "obj-137", 0 ]
				}

			}
, 			{
				"patchline" : 				{
					"destination" : [ "obj-133", 1 ],
					"order" : 1,
					"source" : [ "obj-147", 0 ]
				}

			}
, 			{
				"patchline" : 				{
					"destination" : [ "obj-148", 4 ],
					"order" : 0,
					"source" : [ "obj-147", 0 ]
				}

			}
, 			{
				"patchline" : 				{
					"destination" : [ "obj-191", 1 ],
					"source" : [ "obj-148", 0 ]
				}

			}
, 			{
				"patchline" : 				{
					"destination" : [ "obj-4", 0 ],
					"source" : [ "obj-156", 0 ]
				}

			}
, 			{
				"patchline" : 				{
					"destination" : [ "obj-10", 0 ],
					"source" : [ "obj-159", 2 ]
				}

			}
, 			{
				"patchline" : 				{
					"destination" : [ "obj-10", 0 ],
					"source" : [ "obj-159", 0 ]
				}

			}
, 			{
				"patchline" : 				{
					"destination" : [ "obj-12", 0 ],
					"source" : [ "obj-159", 3 ]
				}

			}
, 			{
				"patchline" : 				{
					"destination" : [ "obj-12", 0 ],
					"source" : [ "obj-159", 1 ]
				}

			}
, 			{
				"patchline" : 				{
					"destination" : [ "obj-171", 0 ],
					"source" : [ "obj-16", 0 ]
				}

			}
, 			{
				"patchline" : 				{
					"destination" : [ "obj-177", 0 ],
					"source" : [ "obj-168", 0 ]
				}

			}
, 			{
				"patchline" : 				{
					"destination" : [ "obj-2", 0 ],
					"source" : [ "obj-169", 0 ]
				}

			}
, 			{
				"patchline" : 				{
					"destination" : [ "obj-159", 0 ],
					"midpoints" : [ 147.452072501182556, 540.0, 900.0, 540.0, 900.0, 102.0, 1119.345764636993408, 102.0 ],
					"order" : 0,
					"source" : [ "obj-171", 0 ]
				}

			}
, 			{
				"patchline" : 				{
					"destination" : [ "obj-92", 0 ],
					"order" : 1,
					"source" : [ "obj-171", 0 ]
				}

			}
, 			{
				"patchline" : 				{
					"destination" : [ "obj-175", 0 ],
					"source" : [ "obj-172", 0 ]
				}

			}
, 			{
				"patchline" : 				{
					"destination" : [ "obj-172", 0 ],
					"source" : [ "obj-173", 0 ]
				}

			}
, 			{
				"patchline" : 				{
					"destination" : [ "obj-172", 1 ],
					"source" : [ "obj-174", 0 ]
				}

			}
, 			{
				"patchline" : 				{
					"destination" : [ "obj-178", 0 ],
					"source" : [ "obj-175", 0 ]
				}

			}
, 			{
				"patchline" : 				{
					"destination" : [ "obj-177", 0 ],
					"hidden" : 1,
					"source" : [ "obj-176", 0 ]
				}

			}
, 			{
				"patchline" : 				{
					"destination" : [ "obj-16", 0 ],
					"midpoints" : [ 346.830909878015518, 456.0, 201.830909878015518, 456.0 ],
					"source" : [ "obj-178", 1 ]
				}

			}
, 			{
				"patchline" : 				{
					"destination" : [ "obj-176", 0 ],
					"source" : [ "obj-179", 0 ]
				}

			}
, 			{
				"patchline" : 				{
					"destination" : [ "obj-176", 0 ],
					"source" : [ "obj-180", 0 ]
				}

			}
, 			{
				"patchline" : 				{
					"destination" : [ "obj-171", 0 ],
					"source" : [ "obj-182", 0 ]
				}

			}
, 			{
				"patchline" : 				{
					"destination" : [ "obj-156", 0 ],
					"order" : 1,
					"source" : [ "obj-189", 0 ]
				}

			}
, 			{
				"patchline" : 				{
					"destination" : [ "obj-169", 0 ],
					"order" : 0,
					"source" : [ "obj-189", 0 ]
				}

			}
, 			{
				"patchline" : 				{
					"destination" : [ "obj-156", 1 ],
					"order" : 1,
					"source" : [ "obj-191", 0 ]
				}

			}
, 			{
				"patchline" : 				{
					"destination" : [ "obj-169", 1 ],
					"order" : 0,
					"source" : [ "obj-191", 0 ]
				}

			}
, 			{
				"patchline" : 				{
					"destination" : [ "obj-168", 1 ],
					"order" : 0,
					"source" : [ "obj-2", 0 ]
				}

			}
, 			{
				"patchline" : 				{
					"destination" : [ "obj-180", 0 ],
					"order" : 1,
					"source" : [ "obj-2", 0 ]
				}

			}
, 			{
				"patchline" : 				{
					"destination" : [ "obj-41", 0 ],
					"source" : [ "obj-20", 0 ]
				}

			}
, 			{
				"patchline" : 				{
					"destination" : [ "obj-98", 0 ],
					"source" : [ "obj-22", 0 ]
				}

			}
, 			{
				"patchline" : 				{
					"destination" : [ "obj-28", 0 ],
					"hidden" : 1,
					"source" : [ "obj-24", 0 ]
				}

			}
, 			{
				"patchline" : 				{
					"destination" : [ "obj-182", 0 ],
					"order" : 1,
					"source" : [ "obj-26", 0 ]
				}

			}
, 			{
				"patchline" : 				{
					"destination" : [ "obj-27", 0 ],
					"midpoints" : [ 147.452072501182556, 66.698256194591522, 147.452072501182556, 66.698256194591522 ],
					"order" : 2,
					"source" : [ "obj-26", 0 ]
				}

			}
, 			{
				"patchline" : 				{
					"destination" : [ "obj-33", 0 ],
					"order" : 0,
					"source" : [ "obj-26", 0 ]
				}

			}
, 			{
				"patchline" : 				{
					"destination" : [ "obj-71", 0 ],
					"source" : [ "obj-27", 0 ]
				}

			}
, 			{
				"patchline" : 				{
					"destination" : [ "obj-16", 1 ],
					"source" : [ "obj-28", 0 ]
				}

			}
, 			{
				"patchline" : 				{
					"destination" : [ "obj-38", 0 ],
					"source" : [ "obj-29", 0 ]
				}

			}
, 			{
				"patchline" : 				{
					"destination" : [ "obj-27", 0 ],
					"source" : [ "obj-30", 0 ]
				}

			}
, 			{
				"patchline" : 				{
					"destination" : [ "obj-8", 0 ],
					"source" : [ "obj-33", 0 ]
				}

			}
, 			{
				"patchline" : 				{
					"destination" : [ "obj-119", 0 ],
					"disabled" : 1,
					"source" : [ "obj-36", 0 ]
				}

			}
, 			{
				"patchline" : 				{
					"destination" : [ "obj-174", 0 ],
					"order" : 1,
					"source" : [ "obj-37", 0 ]
				}

			}
, 			{
				"patchline" : 				{
					"destination" : [ "obj-29", 1 ],
					"order" : 2,
					"source" : [ "obj-37", 0 ]
				}

			}
, 			{
				"patchline" : 				{
					"destination" : [ "obj-33", 1 ],
					"midpoints" : [ 42.5, 555.0, 282.0, 555.0, 282.0, 132.0, 262.46295827627182, 132.0 ],
					"order" : 0,
					"source" : [ "obj-37", 0 ]
				}

			}
, 			{
				"patchline" : 				{
					"destination" : [ "obj-107", 0 ],
					"order" : 0,
					"source" : [ "obj-38", 0 ]
				}

			}
, 			{
				"patchline" : 				{
					"destination" : [ "obj-41", 1 ],
					"order" : 1,
					"source" : [ "obj-38", 0 ]
				}

			}
, 			{
				"patchline" : 				{
					"destination" : [ "obj-61", 0 ],
					"source" : [ "obj-38", 1 ]
				}

			}
, 			{
				"patchline" : 				{
					"destination" : [ "obj-65", 0 ],
					"order" : 2,
					"source" : [ "obj-38", 0 ]
				}

			}
, 			{
				"patchline" : 				{
					"destination" : [ "obj-168", 1 ],
					"order" : 0,
					"source" : [ "obj-4", 0 ]
				}

			}
, 			{
				"patchline" : 				{
					"destination" : [ "obj-179", 0 ],
					"order" : 1,
					"source" : [ "obj-4", 0 ]
				}

			}
, 			{
				"patchline" : 				{
					"destination" : [ "obj-37", 0 ],
					"source" : [ "obj-40", 0 ]
				}

			}
, 			{
				"patchline" : 				{
					"destination" : [ "obj-98", 0 ],
					"source" : [ "obj-41", 0 ]
				}

			}
, 			{
				"patchline" : 				{
					"destination" : [ "obj-47", 0 ],
					"source" : [ "obj-43", 1 ]
				}

			}
, 			{
				"patchline" : 				{
					"destination" : [ "obj-47", 0 ],
					"source" : [ "obj-43", 0 ]
				}

			}
, 			{
				"patchline" : 				{
					"destination" : [ "obj-51", 0 ],
					"source" : [ "obj-47", 0 ]
				}

			}
, 			{
				"patchline" : 				{
					"destination" : [ "obj-29", 0 ],
					"source" : [ "obj-61", 0 ]
				}

			}
, 			{
				"patchline" : 				{
					"destination" : [ "obj-20", 0 ],
					"order" : 2,
					"source" : [ "obj-65", 0 ]
				}

			}
, 			{
				"patchline" : 				{
					"destination" : [ "obj-86", 0 ],
					"order" : 0,
					"source" : [ "obj-65", 0 ]
				}

			}
, 			{
				"patchline" : 				{
					"destination" : [ "obj-90", 0 ],
					"order" : 1,
					"source" : [ "obj-65", 0 ]
				}

			}
, 			{
				"patchline" : 				{
					"destination" : [ "obj-98", 0 ],
					"order" : 3,
					"source" : [ "obj-65", 0 ]
				}

			}
, 			{
				"patchline" : 				{
					"destination" : [ "obj-22", 0 ],
					"order" : 1,
					"source" : [ "obj-68", 0 ]
				}

			}
, 			{
				"patchline" : 				{
					"destination" : [ "obj-40", 0 ],
					"order" : 2,
					"source" : [ "obj-68", 0 ]
				}

			}
, 			{
				"patchline" : 				{
					"destination" : [ "obj-70", 0 ],
					"order" : 0,
					"source" : [ "obj-68", 0 ]
				}

			}
, 			{
				"patchline" : 				{
					"destination" : [ "obj-27", 1 ],
					"source" : [ "obj-70", 0 ]
				}

			}
, 			{
				"patchline" : 				{
					"destination" : [ "obj-73", 0 ],
					"source" : [ "obj-71", 0 ]
				}

			}
, 			{
				"patchline" : 				{
					"destination" : [ "obj-173", 0 ],
					"order" : 1,
					"source" : [ "obj-73", 0 ]
				}

			}
, 			{
				"patchline" : 				{
					"destination" : [ "obj-43", 0 ],
					"midpoints" : [ 147.452072501182556, 231.0, 207.0, 231.0, 207.0, 195.0, 309.0, 195.0, 309.0, 180.0, 878.02654618024826, 180.0, 878.02654618024826, 102.0, 1011.269992113113403, 102.0 ],
					"order" : 0,
					"source" : [ "obj-73", 0 ]
				}

			}
, 			{
				"patchline" : 				{
					"destination" : [ "obj-98", 0 ],
					"source" : [ "obj-86", 0 ]
				}

			}
, 			{
				"patchline" : 				{
					"destination" : [ "obj-98", 0 ],
					"source" : [ "obj-90", 0 ]
				}

			}
, 			{
				"patchline" : 				{
					"destination" : [ "obj-127", 0 ],
					"source" : [ "obj-92", 3 ]
				}

			}
, 			{
				"patchline" : 				{
					"destination" : [ "obj-127", 0 ],
					"source" : [ "obj-92", 2 ]
				}

			}
, 			{
				"patchline" : 				{
					"destination" : [ "obj-127", 0 ],
					"source" : [ "obj-92", 1 ]
				}

			}
, 			{
				"patchline" : 				{
					"destination" : [ "obj-127", 0 ],
					"source" : [ "obj-92", 0 ]
				}

			}
 ],
		"parameters" : 		{
			"obj-8" : [ "live.button", "live.button", 0 ],
			"parameterbanks" : 			{

			}
,
			"inherited_shortname" : 1
		}
,
		"dependency_cache" : [  ],
		"autosave" : 0,
		"styles" : [ 			{
				"name" : "maxscore.default.buttons",
				"default" : 				{
					"accentcolor" : [ 1.0, 1.0, 1.0, 1.0 ]
				}
,
				"parentstyle" : "",
				"multi" : 0
			}
 ]
	}

}
